<?xml version="1.0" standalone="no"?><!DOCTYPE svg PUBLIC "-//W3C//DTD SVG 1.1//EN" "http://www.w3.org/Graphics/SVG/1.1/DTD/svg11.dtd"><svg t="1581989564760" class="icon" viewBox="0 0 1024 1024" version="1.1" xmlns="http://www.w3.org/2000/svg" p-id="13414" xmlns:xlink="http://www.w3.org/1999/xlink" width="200" height="200"><defs><style type="text/css"></style></defs><path d="M554.944 866.752H79.68V47.648h749.856v518.336c15.488 2.912 30.432 7.328 44.704 13.12V7.36H34.88v899.648h535.712a237.44 237.44 0 0 1-15.648-40.256z" p-id="13415"></path><path d="M609.184 638.752c-33.312-57.056-66.528-114.208-100.096-171.136-19.136-32.448-55.808-32.288-75.264 0.064a134363.104 134363.104 0 0 0-165.344 276.832c-7.552 12.704-13.568 26.112-5.568 40.736 8.192 15.136 23.072 15.584 37.824 15.584l244.768-0.192a238.4 238.4 0 0 1 63.68-161.888z m-140.768 111.712a25.824 25.824 0 0 1-25.888-26.112 25.344 25.344 0 0 1 26.016-25.792c14.912 0 26.048 11.168 25.888 25.888a25.824 25.824 0 0 1-26.016 26.016z m26.816-103.168c-0.224 15.744-11.424 27.136-26.24 27.136-14.56 0-26.08-11.712-26.144-27.392a11169.856 11169.856 0 0 1 0-103.552c0.064-15.232 11.296-26.592 25.568-26.688a26.976 26.976 0 0 1 26.784 26.944c0.352 17.6 0.064 35.232 0.064 52.864 0.064 16.864 0.192 33.728-0.032 50.688z" p-id="13416"></path><path d="M678.176 494.368c0 22.784 18.112 41.088 40.704 42.08v-5.632a36.672 36.672 0 0 1-35.008-36.448c0-19.712 15.552-35.424 35.008-36.448v-5.728a42.336 42.336 0 0 0-40.704 42.176z m44.608-42.112v5.728a36.544 36.544 0 0 1 34.72 36.384c0 19.552-15.392 35.264-34.72 36.384v5.632a42.24 42.24 0 0 0 40.384-42.016 42.24 42.24 0 0 0-40.384-42.112z" p-id="13417"></path><path d="M678.176 494.368h84.96v2.304h-84.96z" p-id="13418"></path><path d="M750.656 474.016l-11.328 42.272h-10.016l-7.168-27.616a19.328 19.328 0 0 1-0.704-4.672h-0.096a31.072 31.072 0 0 1-0.672 4.672l-7.424 27.616h-10.4l-11.264-42.272h9.888l6.272 28.672a28.096 28.096 0 0 1 0.544 4.768h0.256a21.664 21.664 0 0 1 0.8-4.896l7.84-28.576h9.632l7.168 28.864c0.32 1.088 0.512 2.656 0.672 4.512h0.16c0.096-1.632 0.288-3.072 0.608-4.672l6.208-28.704h9.024z" p-id="13419"></path><path d="M338.688 116.512H142.656a12.704 12.704 0 0 0-13.024 13.056v143.872a12.8 12.8 0 0 0 13.024 13.088h196.032a13.28 13.28 0 0 0 13.056-13.088V129.568a13.024 13.024 0 0 0-13.056-13.056z m4.192 131.68c0 1.12 0 1.376-0.608 1.792l-40.32-40.288s-12.512-12.288-24.544 7.04c-11.392 20-20.8 20.288-32.064 6.848L196.672 182.656s-11.424-15.008-24.512 0l-32.8 31.808V136.992c0-5.568 5.472-10.208 11.712-10.208h179.488c6.944 0 12.48 4.768 12.48 10.208l-0.16 111.2z" p-id="13420"></path><path d="M282.656 158.688c0 5.024 2.656 9.696 7.072 12.192a14.08 14.08 0 1 0-7.072-12.192" p-id="13421"></path><path d="M387.872 116.512h396.928v28.064H387.872zM387.872 163.808h396.928v28.096H387.872zM387.872 211.136h396.928v28.032H387.872zM387.872 258.4h396.928v28.096H387.872zM129.632 307.808h655.168v28.064H129.632zM129.632 359.168h655.168v28.096H129.632z" p-id="13422"></path><path d="M784.768 995.648c103.264 0 186.944-83.68 186.944-186.976s-83.68-186.912-186.944-186.912c-103.296 0-186.944 83.616-186.944 186.912s83.68 186.976 186.944 186.976z m0 23.744a210.656 210.656 0 1 1 0-421.312 210.656 210.656 0 0 1 0 421.312z" p-id="13423"></path><path d="M935.776 811.072a35.872 35.872 0 0 0-34.528 36.096c0 12.192 5.984 22.912 15.232 29.472-5.504 9.792-11.904 18.88-19.328 27.296a35.808 35.808 0 0 0-49.824 33.344c0 0.992 0.224 1.952 0.32 2.912a151.584 151.584 0 0 1-37.696 12.448 35.68 35.68 0 0 0-35.36-33.12c-17.376 0-31.232 12.672-34.432 29.184a151.456 151.456 0 0 1-40.288-19.04c1.024-3.36 2.112-6.688 2.112-10.464a35.84 35.84 0 0 0-35.84-35.84c-3.68 0-7.008 1.024-10.304 2.048a153.856 153.856 0 0 1-18.944-40.32c16.352-3.328 28.928-17.12 28.928-34.4 0-18.784-14.56-33.728-32.928-35.328a154.56 154.56 0 0 1 14.496-43.424c5.536 3.488 11.712 6.016 18.752 6.016a35.84 35.84 0 0 0 35.84-35.808c0-8.992-3.616-17.024-9.152-23.296a150.72 150.72 0 0 1 29.472-17.504c5.408 13.248 18.496 22.72 33.92 22.72a36.16 36.16 0 0 0 36.416-34.848c12.672 0.672 25.28 2.816 37.44 6.56a33.376 33.376 0 0 0-1.824 10.528c0 19.968 16.32 36.128 36.544 36.128 9.952 0 19.008-3.968 25.6-10.368 7.296 7.04 13.824 14.88 19.584 23.264a35.936 35.936 0 0 0 24.224 59.2c1.6 8.864 2.56 17.952 2.56 27.232-0.096 3.136-0.736 6.144-0.992 9.312z m-53.824-20.48a18.4 18.4 0 0 0-9.408-10.304 17.984 17.984 0 0 0-13.984-0.576c-0.256 0-0.32 0.256-0.576 0.352-0.48-1.664-0.704-3.328-1.248-4.992a82.208 82.208 0 0 0-6.304-12.832c0.608-0.096 1.088 0 1.696-0.32a18.272 18.272 0 0 0-12.48-34.272 18.24 18.24 0 0 0-10.688 10.976 83.392 83.392 0 0 0-13.504-7.84 18.368 18.368 0 0 0-3.008-20.256 18.144 18.144 0 0 0-31.712 13.696c-6.368 0.224-12.8 1.28-19.296 3.072-0.064-0.192-0.032-0.416-0.064-0.608a18.368 18.368 0 0 0-23.712-10.784 18.4 18.4 0 0 0-10.56 9.376 18.4 18.4 0 0 0-0.704 14.08c0.768 2.24 2.016 4.224 3.52 5.824-4.16 4.096-7.904 8.608-11.136 13.568a17.92 17.92 0 0 0-25.216 8.032 17.856 17.856 0 0 0 12.672 25.28c-0.928 7.584-0.416 15.296 0.896 23.04-0.608 0.128-1.248 0-1.856 0.288a18.048 18.048 0 0 0-10.336 9.536 18.656 18.656 0 0 0-0.576 14.016 18.24 18.24 0 0 0 9.472 10.4 18.208 18.208 0 0 0 14.016 0.704c1.248-0.48 2.08-1.344 3.232-1.984 4.544 6.08 10.08 11.136 16.096 15.648a17.888 17.888 0 0 0-6.592 20.672 18.176 18.176 0 0 0 23.36 10.944 17.92 17.92 0 0 0 11.68-18.464c7.264 1.76 14.688 2.784 22.336 2.304 0.16 1.28 0.064 2.592 0.544 3.84a18.4 18.4 0 0 0 23.584 10.848 18.336 18.336 0 0 0 11.072-23.456c-0.16-0.544-0.576-0.832-0.736-1.344 5.888-3.36 11.008-7.744 15.68-12.48 3.84 8.832 13.696 13.12 22.72 9.984a18.432 18.432 0 0 0-5.408-35.744c2.208-5.376 3.552-10.976 4.608-16.704 3.52 1.12 7.392 1.088 10.976-0.096a18.304 18.304 0 0 0 10.944-23.424z" p-id="13424"></path><path d="M783.456 858.56c-31.328 0-56.832-25.472-56.832-56.832s25.504-56.832 56.832-56.832a56.864 56.864 0 0 1 0 113.664z m0-90.208a33.44 33.44 0 1 0 33.472 33.376c0-18.464-14.944-33.376-33.472-33.376z" p-id="13425"></path></svg>