<?xml version="1.0" standalone="no"?><!DOCTYPE svg PUBLIC "-//W3C//DTD SVG 1.1//EN" "http://www.w3.org/Graphics/SVG/1.1/DTD/svg11.dtd"><svg t="1593501057855" class="icon" viewBox="0 0 1024 1024" version="1.1" xmlns="http://www.w3.org/2000/svg" p-id="4978" width="200" height="200" xmlns:xlink="http://www.w3.org/1999/xlink"><defs><style type="text/css"></style></defs><path d="M145.24 354.45H240a13.3 13.3 0 0 1 13.28 13.28v327.76a13.25 13.25 0 0 0 13.28 13.28h101a13.25 13.25 0 0 0 13.28-13.28V367.7a13.3 13.3 0 0 1 13.28-13.29h94.74a13 13 0 0 0 10.88-5.66c14.9-22.15 13.44-53.8-4.54-74.07L352.64 114.61a46.52 46.52 0 0 0-71.26 0L138.87 274.68c-18 20.24-19.45 51.86-4.55 74.07a13.09 13.09 0 0 0 10.92 5.7zM721 605.52c6.92 7 17.13 11.08 27.88 11.08s21-4.05 27.89-11.08l111.56-106.93a36.63 36.63 0 0 0 3.55-49.45 10.87 10.87 0 0 0-8.45-3.79h-74.19c-5.75 0-10.4-4-10.4-8.87v-219c0-4.9-4.65-8.88-10.4-8.88h-79c-5.74 0-10.4 4-10.4 8.88v219c0 4.9-4.65 8.87-10.39 8.87h-74.19a10.87 10.87 0 0 0-8.45 3.79 36.59 36.59 0 0 0 3.55 49.45z" p-id="4979"></path><path d="M95.31 801.77m62.12 0l709.14 0q62.12 0 62.12 62.12l0-0.01q0 62.12-62.12 62.12l-709.14 0q-62.12 0-62.12-62.12l0 0.01q0-62.12 62.12-62.12Z" p-id="4980"></path></svg>