<?xml version="1.0" standalone="no"?><!DOCTYPE svg PUBLIC "-//W3C//DTD SVG 1.1//EN" "http://www.w3.org/Graphics/SVG/1.1/DTD/svg11.dtd"><svg t="1593501649317" class="icon" viewBox="0 0 1024 1024" version="1.1" xmlns="http://www.w3.org/2000/svg" p-id="5607" xmlns:xlink="http://www.w3.org/1999/xlink" width="200" height="200"><defs><style type="text/css"></style></defs><path d="M954.76 452a118.41 118.41 0 0 1-83.11-205 433.17 433.17 0 0 0-89-90.36 118.39 118.39 0 0 1-203.86-86.32 432.68 432.68 0 0 0-126.83-1 118.41 118.41 0 0 1-205 83.11 433.17 433.17 0 0 0-90.36 89 118.39 118.39 0 0 1-86.28 203.9 432.68 432.68 0 0 0-1 126.83 118.41 118.41 0 0 1 83.11 205 444.68 444.68 0 0 0 89 90.36 118.4 118.4 0 0 1 203.9 86.28 444 444 0 0 0 126.83 1 118.41 118.41 0 0 1 205-83.11 444.16 444.16 0 0 0 90.36-89 118.39 118.39 0 0 1 86.28-203.9 444 444 0 0 0 0.96-126.79z m-236 147.56a224.42 224.42 0 0 1-294.15 119.19c-114.15-48.3-167.52-180-119.23-294.13s180-167.53 294.13-119.23S767 485.36 718.74 599.52z" p-id="5608"></path><path d="M558.32 402.73a118.71 118.71 0 1 0 63.08 155.59 118.71 118.71 0 0 0-63.08-155.59z" p-id="5609"></path></svg>