<?xml version="1.0" standalone="no"?><!DOCTYPE svg PUBLIC "-//W3C//DTD SVG 1.1//EN" "http://www.w3.org/Graphics/SVG/1.1/DTD/svg11.dtd"><svg t="1581989299541" class="icon" viewBox="0 0 1024 1024" version="1.1" xmlns="http://www.w3.org/2000/svg" p-id="7403" xmlns:xlink="http://www.w3.org/1999/xlink" width="200" height="200"><defs><style type="text/css"></style></defs><path d="M985.6 1017.6c-6.4 0-19.2-6.4-25.6-6.4l-160-160-153.6 160c-6.4 6.4-12.8 12.8-25.6 12.8-6.4 0-19.2-6.4-25.6-12.8-12.8-12.8-12.8-32 0-44.8l160-160L595.2 640c-6.4-12.8-6.4-32 0-44.8 6.4-6.4 12.8-12.8 25.6-12.8s12.8 6.4 19.2 12.8l166.4 166.4 160-166.4c6.4-6.4 12.8-12.8 25.6-12.8 6.4 0 19.2 6.4 25.6 6.4 6.4 12.8 6.4 32 0 44.8l-166.4 166.4 160 153.6c12.8 12.8 12.8 32 0 44.8-6.4 19.2-19.2 19.2-25.6 19.2zM403.2 620.8H217.6c-19.2 0-38.4-19.2-38.4-38.4s19.2-38.4 38.4-38.4h179.2c19.2 0 38.4 19.2 38.4 38.4 6.4 19.2-12.8 38.4-32 38.4zM345.6 38.4v147.2c0 19.2-19.2 38.4-38.4 38.4s-38.4-19.2-38.4-38.4V38.4c6.4-19.2 19.2-38.4 44.8-38.4 19.2 0 32 19.2 32 38.4zM742.4 38.4v147.2c0 19.2-19.2 38.4-38.4 38.4s-38.4-19.2-38.4-38.4V38.4c0-19.2 12.8-38.4 38.4-38.4 19.2 0 38.4 19.2 38.4 38.4z" p-id="7404"></path><path d="M1017.6 198.4c0-64-51.2-115.2-115.2-121.6H128c-64 0-128 51.2-128 121.6V896c0 70.4 57.6 128 128 128h384c19.2 0 38.4-19.2 38.4-38.4s-19.2-44.8-38.4-44.8H128c-25.6 0-44.8-19.2-44.8-44.8V441.6H1024V198.4zM76.8 364.8V198.4c0-25.6 19.2-44.8 44.8-44.8H896c19.2 6.4 38.4 25.6 38.4 44.8v166.4H76.8z" p-id="7405"></path><path d="M403.2 787.2H217.6c-19.2 0-38.4-19.2-38.4-38.4s19.2-38.4 38.4-38.4h179.2c19.2 0 38.4 19.2 38.4 38.4 6.4 19.2-12.8 38.4-32 38.4z" p-id="7406"></path></svg>