<?xml version="1.0" standalone="no"?><!DOCTYPE svg PUBLIC "-//W3C//DTD SVG 1.1//EN" "http://www.w3.org/Graphics/SVG/1.1/DTD/svg11.dtd"><svg t="1588819269556" class="icon" viewBox="0 0 1024 1024" version="1.1" xmlns="http://www.w3.org/2000/svg" p-id="6380" xmlns:xlink="http://www.w3.org/1999/xlink" width="200" height="200"><defs><style type="text/css"></style></defs><path d="M816.73 471.17H521.49v-118.5h132.6c18.17 0 33-15.31 33-34V132.55c0-18.72-14.84-34-33-34H370.26c-18.17 0-33 15.31-33 34v186.09c0 18.72 14.84 34 33 34h132.6v118.5H207.5a17.11 17.11 0 0 0-16.85 17.39v115.1h18.63V490.39h293.46v113.24h18.64V490.39h293.45v113.24h18.64V488.56a17 17 0 0 0-16.74-17.39z m-578.6 271.66A70.14 70.14 0 0 0 267 685.78c0-38.44-30.27-69.66-67.55-69.66s-67.55 31.22-67.55 69.66a70.14 70.14 0 0 0 28.85 57.05C125.24 752.87 99 786.41 99 826.08v90.22a9 9 0 0 0 8.9 9.18h182.82a9 9 0 0 0 8.9-9.18v-90.22c0.12-39.67-26.11-73.21-61.49-83.25z m312.69 0a70.17 70.17 0 0 0 28.85-57.05c0-38.44-30.28-69.66-67.56-69.66s-67.54 31.22-67.54 69.66a70.12 70.12 0 0 0 28.85 57.05c-35.5 10-61.73 43.58-61.73 83.25v90.22a9 9 0 0 0 8.9 9.18h182.82a9 9 0 0 0 8.9-9.18v-90.22c0.23-39.67-26-73.21-61.49-83.25z m312.68 0a70.12 70.12 0 0 0 28.85-57.05c0-38.44-30.27-69.66-67.54-69.66s-67.55 31.22-67.55 69.66a70.14 70.14 0 0 0 28.84 57.05c-35.49 10-61.72 43.58-61.72 83.25v90.22a9 9 0 0 0 8.9 9.18H916.1a9 9 0 0 0 8.9-9.18v-90.22c0.24-39.67-26-73.21-61.5-83.25z m0 0" p-id="6381"></path></svg>