<?xml version="1.0" standalone="no"?><!DOCTYPE svg PUBLIC "-//W3C//DTD SVG 1.1//EN" "http://www.w3.org/Graphics/SVG/1.1/DTD/svg11.dtd"><svg t="1588819255450" class="icon" viewBox="0 0 1024 1024" version="1.1" xmlns="http://www.w3.org/2000/svg" p-id="6247" xmlns:xlink="http://www.w3.org/1999/xlink" width="200" height="200"><defs><style type="text/css"></style></defs><path d="M531.49 786.39h45.21c25.25 0.46 46.11-20 46.65-45.76V213.18c-0.52-25.77-21.39-46.25-46.65-45.76h-45.21c-25.26-0.49-46.13 20-46.65 45.76v527.55c0.57 25.73 21.43 46.15 46.65 45.66zM769 786.39h45.21c25.26 0.48 46.14-20 46.66-45.76v-368.5c-0.52-25.77-21.4-46.24-46.66-45.76H769c-25.25-0.48-46.13 20-46.65 45.76v368.6c0.65 25.73 21.47 46.15 46.65 45.66zM298.48 786.39h45.2c25.25 0.46 46.11-20 46.66-45.76V504.34c-0.52-25.77-21.39-46.25-46.66-45.77h-45.2c-25.26-0.48-46.14 20-46.66 45.77v236.39c0.57 25.73 21.43 46.15 46.66 45.66z" p-id="6248"></path><path d="M942.75 876c-1-25.28-22-44.9-46.75-43.83H174.42V145.71c-1.15-25.41-21.68-45.4-46.61-45.4s-45.45 20-46.6 45.4v732.21c0.52 25.77 21.39 46.24 46.65 45.76h771.92c24.78-1.06 44.01-22.42 42.97-47.68z" p-id="6249"></path></svg>