<?xml version="1.0" standalone="no"?><!DOCTYPE svg PUBLIC "-//W3C//DTD SVG 1.1//EN" "http://www.w3.org/Graphics/SVG/1.1/DTD/svg11.dtd"><svg t="1588819038832" class="icon" viewBox="0 0 1024 1024" version="1.1" xmlns="http://www.w3.org/2000/svg" p-id="5718" xmlns:xlink="http://www.w3.org/1999/xlink" width="200" height="200"><defs><style type="text/css"></style></defs><path d="M854.12 122.43H169.88c-39.62 0-72 31.07-72 69v483.4c0 38 32.41 69 72 69H476v88.65l-142.26-0.13c-18 0-34.21 11.58-37.81 28.84-3.6 22.44 14.41 40.34 36 40.34h358.33c18 0 34.22-12.09 37.82-29.35 3.6-22.44-14.41-39.7-36-39.7H548v-88.61h306.12c39.62 0 72-31.07 72-69V191.48c0-38-32.41-69-72-69z m-108 345.25H627.24l-41.42 117.38c-3.6 10.36-18 12.08-25.2 3.45L431 415.89l-16.21 39.7c-1.8 6.91-9 10.36-16.2 10.36H261.71c-18 0-34.21-12.08-37.81-29.35-3.6-22.44 14.4-39.7 36-39.7h100.85l41.41-100.12c3.6-10.36 18-12.09 25.21-3.46L553.42 459l18-51.78c1.8-6.91 9-12.09 16.21-12.09h154.85c18 0 34.21 12.09 37.81 29.35 5.41 25.89-10.8 43.16-34.21 43.16z m0 0" p-id="5719"></path></svg>