<?xml version="1.0" standalone="no"?><!DOCTYPE svg PUBLIC "-//W3C//DTD SVG 1.1//EN" "http://www.w3.org/Graphics/SVG/1.1/DTD/svg11.dtd"><svg t="1581919431247" class="icon" viewBox="0 0 1024 1024" version="1.1" xmlns="http://www.w3.org/2000/svg" p-id="1045" xmlns:xlink="http://www.w3.org/1999/xlink" width="200" height="200"><defs><style type="text/css"></style></defs><path d="M519.93 6.7c-120.91 0-219.04 98.16-219.04 219.22 0.13 58.28 23.29 114.11 64.37 155.23 41.08 41.11 96.72 64.13 154.67 63.99 121.06 0 219.12-98.16 219.12-219.22-0.02-58.21-23.12-114.01-64.18-155.06C633.71 29.73 578.03 6.67 520.01 6.7h-0.08z m0 372.45c-84.5 0-153.09-68.65-153.09-153.24 0-84.66 68.58-153.17 153.09-153.17 84.59 0 153.1 68.5 153.1 153.17 0 40.64-16.08 79.58-44.78 108.37-28.76 28.75-67.68 44.88-108.23 44.87h-0.09z m0-7.07M520.98 713.47c-83.9 0-151.99 68.11-151.99 152.11 0.09 40.44 16.16 79.18 44.66 107.71 28.5 28.53 67.11 44.5 107.32 44.4 84 0 152.04-68.11 152.04-152.11-0.02-40.39-16.04-79.11-44.53-107.59-28.56-28.54-67.19-44.54-107.45-44.52h-0.05z m0 253.54c-55.93 0-101.32-45.44-101.32-101.42 0-56.04 45.39-101.38 101.32-101.38 55.98 0 101.33 45.34 101.33 101.38 0 26.9-10.64 52.67-29.64 71.73-19.04 19.03-44.79 29.71-71.63 29.7h-0.06z m0 0M164.35 552.87c-73.07 3.19-129.78 65.11-126.58 138.27 1.62 35.21 17.09 68.35 43 92.11 25.91 23.76 60.14 36.2 95.17 34.59 73.16-3.2 129.83-65.11 126.63-138.27-1.55-35.18-16.99-68.29-42.88-92.01-25.96-23.77-60.22-36.23-95.28-34.68l-0.06-0.01z m9.66 220.81c-48.71 2.13-89.98-35.72-92.11-84.48-2.13-48.8 35.68-90.02 84.39-92.15 48.76-2.13 89.98 35.63 92.11 84.44a88.552 88.552 0 0 1-23.08 63.6c-15.86 17.3-37.88 27.58-61.26 28.59h-0.05z m0 0"  p-id="1046"></path><path d="M519.75 405.22c17.49 0 31.66 9.92 31.66 22.15v310.18c0 12.23-14.18 22.15-31.66 22.15-17.49 0-31.67-9.92-31.67-22.15V427.37c0.34-12.14 14.32-21.92 31.67-22.15zM443.71 394.8c12.89 11.81 17.57 27.7 10.44 35.47l-180.68 197.2c-7.13 7.78-23.36 4.51-36.25-7.31-12.9-11.82-17.57-27.7-10.45-35.48l180.69-197.21c7.32-7.47 23.32-4.25 36.25 7.33z"  p-id="1047"></path><path d="M858.71 552.86c-35.06-1.55-69.32 10.92-95.28 34.68-25.9 23.72-41.33 56.83-42.88 92.01-3.2 73.16 53.47 135.07 126.63 138.27 35.02 1.61 69.25-10.83 95.16-34.59 25.91-23.76 41.38-56.89 43-92.11 3.2-73.16-53.51-135.07-126.58-138.27l-0.05 0.01z m-9.65 220.82c-23.38-1.01-45.41-11.29-61.26-28.59a88.493 88.493 0 0 1-23.08-63.6c2.13-48.8 43.35-86.57 92.11-84.44 48.71 2.13 86.52 43.35 84.39 92.15-2.13 48.76-43.4 86.61-92.11 84.48h-0.05z m0.04 0"  p-id="1048"></path><path d="M579.4 394.8c12.93-11.57 28.94-14.8 36.25-7.31L796.34 584.7c7.13 7.78 2.45 23.66-10.45 35.48-12.89 11.81-29.12 15.08-36.25 7.31L568.96 430.27c-7.13-7.78-2.45-23.66 10.44-35.47z"  p-id="1049"></path></svg>
