<?xml version="1.0" standalone="no"?><!DOCTYPE svg PUBLIC "-//W3C//DTD SVG 1.1//EN" "http://www.w3.org/Graphics/SVG/1.1/DTD/svg11.dtd"><svg t="1588819226444" class="icon" viewBox="0 0 1024 1024" version="1.1" xmlns="http://www.w3.org/2000/svg" p-id="5983" xmlns:xlink="http://www.w3.org/1999/xlink" width="200" height="200"><defs><style type="text/css"></style></defs><path d="M655.73 155.72A446 446 0 0 0 64.67 580a680.41 680.41 0 0 0 18.54 160.7 19.17 19.17 0 0 0 17.89 17.89h817.25a29.72 29.72 0 0 0 22.36-17.89A1038 1038 0 0 0 959.24 580a442.48 442.48 0 0 0-303.51-424.28zM240.3 603.05a44.76 44.76 0 0 1-41 21.52 44.73 44.73 0 1 1 0-89.3 44.73 44.73 0 0 1 41 67.78z m84.12-210.59a43.44 43.44 0 0 1-62.62 0 54.47 54.47 0 0 1-4.47-67.09 43.28 43.28 0 0 1 62.62 0 54.15 54.15 0 0 1 4.47 67.09z m285.45 145.83c-13.94 64-72.68 108.57-112 92.58s-50.71-90.26-15.39-145.33S643 273.57 643 273.57s-19.19 200.72-33.13 264.72zM857 612.41a42 42 0 0 1-32.45 12.16A44.73 44.73 0 1 1 869.31 580 42 42 0 0 1 857 612.41zM814 827.44H209.88a31.95 31.95 0 0 0 0 63.9H814a31.95 31.95 0 1 0 0-63.9z" p-id="5984"></path></svg>