<?xml version="1.0" standalone="no"?><!DOCTYPE svg PUBLIC "-//W3C//DTD SVG 1.1//EN" "http://www.w3.org/Graphics/SVG/1.1/DTD/svg11.dtd"><svg t="1588818947378" class="icon" viewBox="0 0 1024 1024" version="1.1" xmlns="http://www.w3.org/2000/svg" p-id="5250" xmlns:xlink="http://www.w3.org/1999/xlink" width="200" height="200"><defs><style type="text/css"></style></defs><path d="M851.59 512a112.91 112.91 0 0 1 72.7-105.37A422.89 422.89 0 0 0 878.1 295c-41.6 18.49-91.85 10.95-125.9-23.2a112.91 112.91 0 0 1-23.1-125.9 424.6 424.6 0 0 0-111.73-46.19c-16.37 42.42-57.24 72.7-105.37 72.7a112.91 112.91 0 0 1-105.37-72.7A422.55 422.55 0 0 0 295 145.9c18.49 41.6 10.95 91.85-23.11 125.9S187.5 313.4 146 295a419.78 419.78 0 0 0-46.29 111.63c42.42 16.38 72.7 57.24 72.7 105.37a112.91 112.91 0 0 1-72.7 105.37A422.55 422.55 0 0 0 145.9 729c41.6-18.49 91.85-11 125.9 23.2a112.91 112.91 0 0 1 23.1 125.9 424.93 424.93 0 0 0 111.73 46.19c16.38-42.42 57.24-72.7 105.37-72.7a112.91 112.91 0 0 1 105.37 72.7A422.89 422.89 0 0 0 729 878.1c-18.49-41.6-11-91.85 23.11-125.9S836.5 710.6 878 729a419.81 419.81 0 0 0 46.29-111.63A112.91 112.91 0 0 1 851.59 512zM512 625.2A113.2 113.2 0 1 1 625.2 512 113.24 113.24 0 0 1 512 625.2z m0 0" p-id="5251" fill="#000000"></path></svg>