<?xml version="1.0" standalone="no"?><!DOCTYPE svg PUBLIC "-//W3C//DTD SVG 1.1//EN" "http://www.w3.org/Graphics/SVG/1.1/DTD/svg11.dtd"><svg t="1588818980610" class="icon" viewBox="0 0 1024 1024" version="1.1" xmlns="http://www.w3.org/2000/svg" p-id="5586" xmlns:xlink="http://www.w3.org/1999/xlink" width="200" height="200"><defs><style type="text/css"></style></defs><path d="M766.41 371c-12-124.11-116.53-221.12-243.76-221.12-125.67 0-229.09 94.68-243.2 216.58C137 389.33 33.7 529.74 73.14 685.32c26.37 104 137 188.81 244.34 188.81h133V639.81H326.16c-20.19 0-30.65-24.09-16.86-38.84l179.43-191.89a31.86 31.86 0 0 1 46.55 0L707.2 593c16.64 17.79 4 46.86-20.33 46.86H578.25v234.27H725V873c131.17-10.82 234.31-120.54 234.31-254.52C959.33 499 877.22 399 766.41 371z m0 0" p-id="5587"></path></svg>