<?xml version="1.0" standalone="no"?><!DOCTYPE svg PUBLIC "-//W3C//DTD SVG 1.1//EN" "http://www.w3.org/Graphics/SVG/1.1/DTD/svg11.dtd"><svg t="1593501125519" class="icon" viewBox="0 0 1024 1024" version="1.1" xmlns="http://www.w3.org/2000/svg" p-id="5205" xmlns:xlink="http://www.w3.org/1999/xlink" width="200" height="200"><defs><style type="text/css"></style></defs><path d="M892.56 658.16a120.78 120.78 0 0 0-85-34.57h-2.69a122.3 122.3 0 0 0-59.66 15.55 119.72 119.72 0 0 0-44.14 42.77 116.85 116.85 0 0 0-11.45 94.83 293.18 293.18 0 0 1-180.13 61.74h-0.46a292.2 292.2 0 0 1-175.85-58.84 117.2 117.2 0 0 0-28.28-120.5A120.63 120.63 0 0 0 229.18 624a276.29 276.29 0 0 1 25.32-201c34.72-63.86 91.9-111.45 161.58-134.71A120.11 120.11 0 0 0 492.84 346a123 123 0 0 0 28.75 3.42A121.54 121.54 0 0 0 589 329.15a118.44 118.44 0 0 0 40.61-45.73c90.2 43.48 151.26 130.29 160.22 228.74a37.59 37.59 0 0 0 12.26 25 38.34 38.34 0 0 0 25.89 10h0.02a35.76 35.76 0 0 0 25.8-11 35.11 35.11 0 0 0 9.57-26.7c-0.95-12.61-2-22.32-3.21-29.7a353.73 353.73 0 0 0-76-166.35 363.24 363.24 0 0 0-144.4-105.56 118 118 0 0 0-39.61-66.8 121.72 121.72 0 0 0-78.58-28.69h-2A121.63 121.63 0 0 0 440.64 143 117.9 117.9 0 0 0 402 215.86a363 363 0 0 0-120.7 63.29 355.53 355.53 0 0 0-91.8 109.11A350.08 350.08 0 0 0 156.86 639a119.12 119.12 0 0 0-44.4 42.91 116.88 116.88 0 0 0 0 120.45 119.72 119.72 0 0 0 44.14 42.74 122.25 122.25 0 0 0 52.45 15.33v0.25h9.79a122.19 122.19 0 0 0 70.28-22.24 362.14 362.14 0 0 0 100.2 53.19 366.39 366.39 0 0 0 119.63 20h1.12a366.56 366.56 0 0 0 121.15-20.53 362.37 362.37 0 0 0 101-54.45 121.75 121.75 0 0 0 65.45 23.77v0.25h9.79a120.77 120.77 0 0 0 85.08-34.58 117.2 117.2 0 0 0 0-167.94z m0.37 14.93q-1.7-2-3.48-3.94 1.78 1.94 3.48 3.94z m-13-13c-1.34-1.14-2.71-2.25-4.1-3.32q2.11 1.57 4.17 3.29z m-19.69-13.37q2.36 1.26 4.64 2.61-2.28-1.35-4.64-2.61t-4.77-2.4q2.44 1.12 4.79 2.37z m-52.78-13.1c3.82 0 7.6 0.19 11.32 0.56a110.83 110.83 0 0 1 11 1.65 103.829 103.829 0 0 0 0 0 110.83 110.83 0 0 0-11-1.65c-3.72-0.37-7.5-0.56-11.32-0.56h-3.18 0.6z m-5 0h-1.92z m-3.7 0.14l-1.91 0.11z m-3.67 0.25l-1.9 0.18z m-3.65 0.38c-0.63 0.08-1.26 0.15-1.88 0.24 0.68-0.11 1.31-0.18 1.94-0.26z m-3.62 0.49l-1.87 0.3z m-3.59 0.61l-1.86 0.36z m-3.57 0.72c-0.61 0.14-1.23 0.27-1.84 0.42 0.67-0.17 1.29-0.3 1.9-0.44z m-3.52 0.83l-1.83 0.48z m-3.49 1a54 54 0 0 0-1.81 0.54c0.66-0.26 1.26-0.44 1.87-0.58z m-3.45 1q-0.9 0.29-1.8 0.6 0.96-0.34 1.86-0.64z m-3.41 1.16l-1.78 0.66z m-3.37 1.27c-0.58 0.23-1.17 0.47-1.75 0.72 0.64-0.27 1.23-0.51 1.81-0.74z m-3.31 1.38c-0.59 0.25-1.16 0.51-1.74 0.77 0.63-0.28 1.21-0.54 1.8-0.79z m-3.27 1.47c-0.58 0.27-1.15 0.55-1.71 0.83 0.62-0.3 1.19-0.58 1.77-0.85z m-3.22 1.59c-0.57 0.28-1.13 0.58-1.69 0.88 0.62-0.32 1.18-0.62 1.75-0.9z m-3.16 1.68c-0.56 0.3-1.11 0.62-1.67 0.94 0.62-0.34 1.21-0.66 1.73-0.96z m-3.11 1.78c-0.55 0.32-1.09 0.66-1.63 1 0.6-0.37 1.14-0.7 1.69-1.02z m-3 1.88l-1.6 1z m-3 2c-0.53 0.36-1 0.73-1.57 1.1 0.55-0.41 1.07-0.78 1.6-1.14z m-2.92 2.07c-0.52 0.38-1 0.77-1.54 1.16 0.54-0.43 1.05-0.82 1.57-1.2z m-2.85 2.17l-1.51 1.21z m-2.78 2.26c-0.5 0.41-1 0.84-1.47 1.26 0.52-0.46 1-0.89 1.5-1.3z m-2.71 2.35c-0.48 0.43-1 0.88-1.43 1.32 0.5-0.48 0.98-0.93 1.46-1.36z m-2.63 2.44c-0.48 0.46-0.94 0.92-1.4 1.38 0.49-0.5 0.94-0.92 1.43-1.42z m-2.53 2.46c-0.46 0.47-0.91 1-1.36 1.44 0.43-0.44 0.9-0.94 1.36-1.44z m-7.17 8.11c-0.44 0.55-0.86 1.11-1.29 1.66 0.43-0.52 0.85-1.08 1.29-1.63z m4.7-5.49c-0.46 0.49-0.89 1-1.34 1.5 0.45-0.47 0.88-0.98 1.34-1.47z m-2.4 2.7c-0.44 0.52-0.87 1-1.3 1.58 0.43-0.5 0.86-1.03 1.3-1.55zM711.38 684c-0.66 1-1.31 2.07-1.94 3.12 0.63-1.06 1.28-2.12 1.94-3.12z m4.16-6c-0.44 0.59-0.86 1.18-1.28 1.77 0.42-0.58 0.84-1.17 1.28-1.77z m-2.13 3c-0.46 0.67-0.91 1.35-1.36 2 0.45-0.69 0.95-1.37 1.36-2z m-1.17 157.95c-1.4 1-2.8 1.93-4.22 2.88 1.42-0.99 2.82-1.96 4.22-2.92z m-6.24 4.19c-1.4 0.92-2.8 1.85-4.21 2.75 1.37-0.89 2.77-1.83 4.21-2.75z m-8.37-127.94c-0.51 1.95-1 3.9-1.36 5.87 0.4-1.97 0.85-3.92 1.36-5.87z m-3.45 26.65z m-94.39 93A298.18 298.18 0 0 0 630 823.64a298.18 298.18 0 0 1-30.19 11.19q-6.16 1.92-12.43 3.57 6.24-1.65 12.41-3.57z m82.42-40.32q-4.46 3.11-9 6 4.54-2.91 9-6.02z m-21.07 13.41q-5.34 3.09-10.79 6 5.46-2.94 10.79-6.02z m-15.6 8.43c-2.6 1.31-5.21 2.58-7.85 3.81 2.64-1.25 5.25-2.52 7.85-3.83z m-42 72.87c-1.41 0.39-2.82 0.78-4.23 1.14 1.36-0.38 2.77-0.77 4.18-1.16z m-7.29 1.89c-1.41 0.35-2.81 0.71-4.22 1 1.36-0.31 2.76-0.67 4.17-1.02z m-7.35 1.74c-1.4 0.32-2.79 0.64-4.18 0.94 1.34-0.32 2.73-0.64 4.13-0.96z m-14.1-51.41q-6.35 1.38-12.77 2.5 6.37-1.13 12.72-2.52z m6.71 53c-1.38 0.28-2.76 0.57-4.14 0.83 1.33-0.29 2.71-0.57 4.09-0.85z m-7.51 1.41l-4.07 0.74z m-7.49 1.28c-1.34 0.21-2.67 0.44-4 0.63 1.33-0.19 2.66-0.42 4-0.63z m-7.51 1.11z m-7.5 1l-4 0.45z m-7.5 0.74c-1.31 0.12-2.61 0.25-3.92 0.36 1.28-0.09 2.58-0.22 3.92-0.36z m-7.56 0.63l-3.91 0.29zM328 788.1l-1.55-1.16z m178.05 60.32h-3.17c1.05-0.01 2.12-0.01 3.17 0z m-6.43-0.13l-3.14-0.1z m-6.41-0.27l-3.11-0.16z m-6.41-0.4c-1-0.08-2-0.14-3.06-0.23 1.02 0.09 2.04 0.15 3.06 0.23z m-6.39-0.54c-1-0.1-2-0.18-3-0.29 0.99 0.11 2 0.21 3 0.29z m-6.4-0.68c-1-0.11-1.95-0.21-2.92-0.34 0.97 0.13 1.91 0.23 2.91 0.34z m-6.41-0.81c-0.94-0.13-1.87-0.25-2.8-0.39 0.93 0.14 1.86 0.26 2.8 0.39z m-6.37-1l-2.69-0.43z m-6.31-1.08l-2.62-0.47z m-6.3-1.21l-2.53-0.52z m-6.28-1.3l-2.42-0.55z m-6.26-1.49l-2.3-0.56z m-6.2-1.61c-0.73-0.2-1.47-0.38-2.2-0.59 0.73 0.21 1.47 0.39 2.2 0.59z m-6.17-1.74l-2.09-0.61z m-6.12-1.87c-0.67-0.21-1.33-0.41-2-0.63 0.67 0.22 1.33 0.42 2 0.63z m-6-2c-0.65-0.22-1.31-0.43-2-0.66 0.67 0.25 1.33 0.46 1.98 0.68z m-6-2.12c-0.63-0.23-1.26-0.44-1.89-0.68 0.61 0.26 1.24 0.51 1.87 0.7z m-6-2.26l-1.76-0.68z m-5.82-2.33l-1.78-0.73z m-5.88-2.51l-1.69-0.73z m-5.77-2.6l-1.65-0.76z m-5.72-2.72l-1.61-0.78z m-5.63-2.75l-1.65-0.84z m-5.61-3l-1.6-0.86z m-5.53-3.07l-1.57-0.89z m-5.42-3.18c-0.53-0.31-1.07-0.62-1.59-0.94 0.52 0.31 1.06 0.62 1.59 0.93z m-5.21-3.23l-1.71-1.06z m-5.3-3.4c-0.57-0.38-1.15-0.74-1.71-1.12 0.51 0.38 1.09 0.74 1.66 1.12z m-5.27-3.55c-0.56-0.38-1.12-0.75-1.68-1.14 0.51 0.39 1.07 0.76 1.63 1.14z m-5.19-3.64l-1.65-1.19z m-13.71 55.35c-1-0.64-2-1.3-3.05-1.95 0.97 0.67 1.97 1.31 3 1.95z m-6.23-4c-1.05-0.69-2.09-1.41-3.13-2.11 0.99 0.71 2.03 1.43 3.08 2.12z m-13.4-175.16a110.42 110.42 0 0 0-19.08-16 110.42 110.42 0 0 1 19.03 16.01z m7.26 171c-1.11-0.76-2.2-1.55-3.3-2.32 1.05 0.81 2.14 1.6 3.25 2.36z m-6.06-4.27c-1.25-0.9-2.49-1.82-3.73-2.73 1.19 0.95 2.43 1.88 3.68 2.77z m-6-4.39a376.89 376.89 0 0 1-5.47-4.2c1.78 1.45 3.6 2.86 5.44 4.24zM279.07 651c-1.19-0.75-2.39-1.49-3.61-2.21-1.88-1.1-3.81-2.14-5.77-3.13 2 1 3.89 2 5.77 3.13 1.22 0.76 2.42 1.5 3.61 2.21z m-11.3-6.3c-1.09-0.52-2.19-1-3.29-1.52 1.1 0.53 2.2 1.04 3.29 1.56z m-5-2.28q-2.72-1.15-5.51-2.16 2.74 1.05 5.48 2.2z m-9.77-3.55c-1.2-0.38-2.41-0.74-3.63-1.09 1.25 0.35 2.46 0.71 3.63 1.09z m-10.13-2.7q-3.5-0.76-7.07-1.3 3.6 0.54 7.1 1.3z m-32-77.82q0.06 6.9 0.45 13.8-0.38-6.9-0.44-13.8z m3.63-48.11q-1 6.45-1.77 12.92 0.74-6.48 1.78-12.92z m-1.93 14.32q-0.72 6.54-1.14 13.11 0.43-6.57 1.15-13.11z m0 62.1c0-0.45-0.1-0.89-0.14-1.34 0.01 0.45 0.06 0.89 0.11 1.34z m80.33-232.37q-7.48 7.74-14.42 16A291.92 291.92 0 0 0 246 418.15a288.72 288.72 0 0 0-28.64 77.24A288.72 288.72 0 0 1 246 418.15a291.92 291.92 0 0 1 32.53-47.83q6.91-8.29 14.42-16t15.54-14.91q-8.09 7.13-15.59 14.88z m-74.42 267.16z m112.27-300.13q5.81-4.24 11.8-8.21-6 3.97-11.8 8.21z m32.43-20.66q8.38-4.62 17.05-8.72-8.67 4.06-17.05 8.72z m38.88-18c3.93-1.48 7.9-2.91 11.9-4.23-3.96 1.37-7.96 2.8-11.9 4.28z m-13.27 5.38q4.74-2.05 9.56-3.94-4.83 1.9-9.56 3.99z m22.26-64.49z m65.82 106.63c1.93 0.84 3.9 1.62 5.89 2.35q2.53 0.92 5.12 1.72-2.58-0.81-5.12-1.72c-1.99-0.68-3.96-1.46-5.89-2.3z m12.84 4.63q2.66 0.78 5.38 1.44-2.73-0.61-5.38-1.39z m8.38 2.12l0.9 0.18z m3.09 0.61l0.93 0.17z m3.54 0.6l0.4 0.06z m3.41 0.46l0.8 0.09z m3.06 0.32l0.93 0.09z m3.31 0.26h0.64z m3.62 0.18z m3.46 0z m4.06-0.07h0.46z m3.94-0.22h0.52z m4.12-0.37l0.76-0.09z m4.33-0.55l0.51-0.08z m3.87-0.65l0.51-0.09z m4-0.81l0.77-0.17z m4.21-1l0.57-0.16z m3.75-1.06l0.52-0.15z m3.86-1.23l0.78-0.27z m4-1.46l0.63-0.25z m3.62-1.46l0.51-0.21z m3.68-1.63l0.78-0.37z m3.85-1.89l0.64-0.33z m3.45-1.85l0.48-0.26z m3.46-2l0.75-0.45z m3.62-2.29l0.63-0.42z m3.25-2.23l0.42-0.3z m3.2-2.37l0.69-0.53z m3.35-2.67l0.58-0.49z m3-2.63l0.33-0.29z m2.9-2.69l0.6-0.58z m3-3l0.51-0.54z m2.79-3l0.23-0.25z m2.55-3l0.51-0.61z m92.2 18.41q-3.69-3.18-7.49-6.26-7.59-6.17-15.63-11.83a300.17 300.17 0 0 0-51.85-29.38v-0.05 0.05a300.17 300.17 0 0 1 51.85 29.38q8 5.67 15.63 11.83 3.79 3.07 7.49 6.26 7.37 6.39 14.27 13.21-6.79-6.77-14.16-13.16z m-89.52-21.78l0.43-0.57z m2.5-3.41l0.14-0.19z m2.18-3.23l0.41-0.63z m2.29-3.69c0.12-0.19 0.24-0.39 0.35-0.59 0 0.25-0.12 0.45-0.24 0.64z m2.17-3.81a0.56 0.56 0 0 1 0-0.08 0.56 0.56 0 0 0 0.11 0.13z m1.77-3.44l0.32-0.64z m1.87-4l0.28-0.64z m1.59-83.21c0.14 0.36 0.28 0.73 0.43 1.1-0.04-0.29-0.18-0.66-0.32-1.02z m92.85 143.19q3.39 3.46 6.66 7-3.16-3.46-6.55-6.92z m82.12 177c0 0.46 0.08 0.91 0.13 1.36 0.06-0.41 0.01-0.86-0.02-1.32zM828 537.17h-0.53 0.54z m-8.1-1.17z m1.2 0.31h0.1z m1.23 0.27h0.18z m1.23 0.22h0.29z m1.14 0.15l0.51 0.06z m1.37 0.12h0.51z m1.92 0.07h0.68-0.63z m18.83-8q-0.45 0.48-0.93 0.93 0.48-0.45 0.93-0.93c0.31-0.32 0.6-0.65 0.89-1a25.31 25.31 0 0 0 2-2.73 25.31 25.31 0 0 1-2 2.73c-0.29 0.38-0.58 0.71-0.89 1.03z m-17.47 8h0.65z m1.32-0.1l0.65-0.08z m1.31-0.16c0.22 0 0.43-0.08 0.65-0.12-0.22 0.03-0.43 0.08-0.63 0.11z m1.3-0.23l0.65-0.15z m1.27-0.3c0.22-0.05 0.43-0.12 0.64-0.18-0.19 0.05-0.42 0.12-0.64 0.17z m1.27-0.35l0.61-0.21z m1.23-0.42l0.64-0.26z m1.22-0.48l0.63-0.29z m1.19-0.55l0.61-0.31z m1.15-0.59l0.58-0.34z m1.13-0.66l0.59-0.39z m1.09-0.72l0.65-0.47z m1.06-0.77c0.23-0.17 0.45-0.36 0.68-0.55-0.23 0.18-0.45 0.37-0.68 0.54z m1-0.82l0.68-0.61z m5.35-6.37a25.41 25.41 0 0 0 2.65-6.35 25.41 25.41 0 0 1-2.63 6.34z m3.23-9.23c0.11-0.83 0.18-1.67 0.21-2.51-0.01 0.83-0.08 1.67-0.19 2.5z m0.22-3.88c0-0.44 0-0.87-0.06-1.31 0.05 0.43 0.07 0.86 0.08 1.3z m-0.4-5.68q-0.52-6.37-1.1-11.78 0.61 5.39 1.12 11.77z m-6-41.23q1.83 8.34 3.25 16.81 0.68 4.08 1.27 9.15-0.6-5.07-1.27-9.15-1.42-8.47-3.25-16.81-2.43-11.11-5.59-22 3.16 10.87 5.6 21.99z m-7.21-27.39q-2.49-8.08-5.38-16 2.89 7.9 5.39 15.99z m-16-41.95q2.34 5.08 4.51 10.26-2.16-5.17-4.51-10.26t-4.83-10.08q2.48 4.99 4.81 10.07z m-37-62.25q-3.33-4.47-6.81-8.83 3.47 4.36 6.8 8.82z m-32.86-38q2 2 3.93 4-1.95-2-3.93-4a488.78 488.78 0 0 0-8-7.79c2.67 2.58 5.36 5.18 7.99 7.78zM740.1 281.7q-5.29-4.74-10.79-9.28 5.51 4.58 10.79 9.28z m-57.16-41.63q4.92 2.88 9.74 5.91t9.51 6.19q11.74 7.92 22.75 16.7-11-8.78-22.75-16.7-4.71-3.16-9.51-6.19t-9.74-5.91a355.9 355.9 0 0 0-51.83-24.91 355.9 355.9 0 0 1 51.83 24.91z m-57.45-46.63l0.4 1.12z m0.83 2.32l0.39 1.13z m0.79 2.34c0.13 0.39 0.24 0.79 0.37 1.18-0.13-0.39-0.24-0.79-0.37-1.18z m0.73 2.36l0.36 1.25z m0.68 2.4z m0.63 2.41z m0.57 2.44c0.11 0.49 0.21 1 0.31 1.48-0.1-0.49-0.2-0.99-0.31-1.48z m0.52 2.46l0.3 1.59z m-22.38-47.26l-0.63-0.77zM624.11 190l-0.45-1.08z m-1-2.28c-0.15-0.34-0.3-0.69-0.46-1 0.18 0.28 0.35 0.62 0.48 0.96z m-1-2.24c-0.16-0.33-0.31-0.67-0.47-1 0.16 0.29 0.36 0.63 0.47 0.96z m-1.06-2.19c-0.17-0.33-0.33-0.67-0.5-1 0.17 0.29 0.33 0.63 0.5 0.96z m-1.12-2.18l-0.51-1z m-1.17-2.15c-0.17-0.31-0.34-0.63-0.52-0.94 0.18 0.27 0.35 0.59 0.52 0.9z m-1.2-2.12l-0.54-0.91z m-1.26-2.08l-0.55-0.89z m-1.3-2.05l-0.56-0.87z m-1.34-2l-0.58-0.85z m-1.39-2c-0.2-0.28-0.39-0.56-0.59-0.83 0.2 0.23 0.39 0.51 0.59 0.79z m-1.43-2l-0.6-0.8z m-1.47-1.92l-0.61-0.78z m-3.06-3.73l-0.64-0.74z m-1.6-1.82l-0.64-0.72z m-1.63-1.78l-0.66-0.7z m-1.67-1.73l-0.67-0.69zM599.7 154l-0.68-0.66z m-1.7-1.65l-0.69-0.64z m-1.78-1.62l-0.7-0.63z m-1.81-1.59l-0.72-0.61z m-1.85-1.55l-0.73-0.59z m-1.89-1.5l-0.73-0.58z m-1.91-1.47l-0.75-0.56z m-2-1.43l-0.76-0.54z m-2-1.38l-0.77-0.52z m-2-1.34L582 140z m-2-1.3l-0.8-0.49z m-2.07-1.25l-0.81-0.48z m-2.1-1.21l-0.83-0.46z m-2.12-1.17l-0.85-0.44z m-2.16-1.12l-0.86-0.43z m-2.18-1.07l-0.88-0.42z m-2.21-1l-0.89-0.4z m-2.23-1l-0.91-0.38z m-2.25-0.93l-0.94-0.37z m-2.29-0.89l-0.94-0.35z m-2.3-0.84l-1-0.33z m-2.33-0.78l-1-0.32z m-2.35-0.74l-1-0.3z m-2.37-0.69l-1-0.28z m-2.39-0.64l-1-0.25z m-2.41-0.58l-1.07-0.24z m-2.43-0.53l-1.09-0.22z m-2.45-0.48L541 124z m-2.46-0.43l-1.14-0.18z m-2.48-0.37l-1.17-0.16z m-2.5-0.32l-1.19-0.13z m-2.52-0.27l-1.21-0.1z m-2.53-0.2l-1.24-0.08z m-2.54-0.16h-1.27z m-2.56-0.09h-1.29z m-2.94 0zM206.5 850.21l-1.88-0.17z m-3.65-0.37l-1.85-0.24z m-3.63-0.5l-1.84-0.29z m-3.59-0.61c-0.61-0.11-1.22-0.22-1.82-0.35 0.6 0.13 1.19 0.24 1.82 0.35z m-3.57-0.72l-1.79-0.41z m-3.53-0.83l-1.77-0.47z m-3.49-0.95l-1.75-0.52z m-9.33-402.7q-3 8.7-5.62 17.52 2.57-8.82 5.62-17.52z m5.87 401.65l-1.72-0.58z m-3.41-1.18l-1.69-0.62z m-3.37-1.27l-1.66-0.68z m-3.32-1.38l-1.63-0.72zM166 476.69q-2.83 11.79-4.8 23.71-1.38 8.39-2.34 16.8 1-8.42 2.34-16.8 1.93-11.91 4.8-23.71z m-9.35 79.69z m11.61 283.5l-1.6-0.77zM165 838.3l-1.58-0.83z m-3.16-1.68c-0.52-0.29-1-0.58-1.55-0.88 0.51 0.26 1.03 0.59 1.55 0.88z m-3.11-1.78l-1.52-0.93z m-3-1.88l-1.49-1z m-3-2l-1.46-1z m-2.92-2.08c-0.48-0.35-0.95-0.71-1.42-1.07 0.45 0.38 0.92 0.74 1.4 1.09z m-2.85-2.16l-1.4-1.13z m-2.77-2.26c-0.47-0.39-0.92-0.79-1.38-1.18 0.44 0.41 0.89 0.81 1.36 1.2z m-2.71-2.35c-0.45-0.41-0.9-0.82-1.34-1.24 0.42 0.44 0.86 0.85 1.32 1.26z m-2.63-2.44c-0.44-0.43-0.88-0.86-1.31-1.3 0.46 0.46 0.85 0.89 1.29 1.32z m-11.93-13.5c-0.43-0.57-0.84-1.16-1.26-1.74 0.4 0.57 0.81 1.19 1.24 1.76z m-2.13-3c-0.46-0.66-0.9-1.33-1.34-2 0.42 0.74 0.86 1.41 1.32 2.07z m-2-3c-0.66-1-1.31-2.06-1.94-3.11 0.58 1.09 1.23 2.13 1.89 3.15z m5.13 7.25c0.41 0.53 0.82 1.07 1.24 1.6-0.47-0.49-0.88-1.02-1.29-1.56z m5.94 7.09c-0.43-0.47-0.85-0.95-1.27-1.43 0.41 0.52 0.79 1 1.22 1.47z m-2.39-2.71c-0.43-0.49-0.84-1-1.25-1.5 0.36 0.54 0.78 1.05 1.2 1.54z m3.57 4c0.43 0.45 0.85 0.91 1.29 1.36-0.49-0.45-0.91-0.91-1.33-1.36z m73.29 34.56l1.9 0.11z m3.68 0.2l1.91 0.05z m4.3 0.09h-0.6 3.18z m12.49-0.4q4.89-0.43 9.66-1.26-4.82 0.83-9.71 1.26z m94-1c1 0.62 2 1.26 3 1.87-1.04-0.58-2.05-1.22-3.06-1.84z m6.37 3.82c1 0.59 2 1.19 3.05 1.77-1.08-0.55-2.09-1.15-3.11-1.74z m6.53 3.71c1 0.55 2 1.11 3 1.65-1.09-0.51-2.07-1.07-3.06-1.62z m6.55 3.56l2.93 1.55z m6.55 3.37l3 1.5z m6.57 3.21c1 0.49 2 1 3.06 1.46-1.08-0.44-2.1-0.94-3.12-1.38z m6.71 3.11c1 0.47 2 0.94 3.07 1.39-1.09-0.42-2.15-0.89-3.15-1.36z m6.81 3c1 0.43 2 0.88 3 1.3-1.04-0.4-2.05-0.85-3.06-1.28z m6.81 2.82c1 0.41 2 0.84 3.06 1.24-1.08-0.38-2.1-0.81-3.12-1.22z m6.81 2.66l3.15 1.19z m127 23.11h-4.07 8.23-3.55z m-120.14-20.56c1.06 0.38 2.11 0.77 3.18 1.13-1.07-0.36-2.12-0.75-3.18-1.13z m7 2.4c1.07 0.35 2.14 0.72 3.21 1.06-1.1-0.34-2.17-0.71-3.24-1.06z m7 2.23l3.27 1z m7.05 2.1c1.11 0.32 2.21 0.65 3.32 1-1.15-0.35-2.25-0.68-3.36-1z m7.1 2l3.36 0.89z m7.14 1.81c1.14 0.27 2.27 0.56 3.41 0.82-1.18-0.3-2.31-0.59-3.45-0.86z m7.19 1.66c1.15 0.25 2.29 0.52 3.44 0.76-1.19-0.28-2.29-0.55-3.48-0.8z m7.22 1.51c1.16 0.24 2.32 0.48 3.49 0.7-1.21-0.26-2.37-0.47-3.56-0.74z m7.23 1.37c1.19 0.21 2.37 0.43 3.56 0.63-1.23-0.24-2.41-0.46-3.6-0.67z m7.28 1.21c1.2 0.19 2.4 0.39 3.61 0.57-1.25-0.22-2.45-0.42-3.65-0.61z m7.31 1.07l3.67 0.5z m7.37 0.92l3.69 0.42z m7.38 0.77c1.24 0.11 2.48 0.24 3.73 0.34-1.29-0.14-2.53-0.27-3.77-0.38z m7.41 0.61c1.25 0.09 2.5 0.19 3.76 0.27-1.3-0.12-2.55-0.22-3.81-0.31z m7.43 0.46c1.26 0.07 2.53 0.15 3.79 0.2-1.27-0.09-2.57-0.17-3.83-0.24z m7.46 0.31l3.81 0.12z m30.94-0.32c-1.3 0.07-2.6 0.15-3.89 0.2 1.25-0.09 2.55-0.17 3.85-0.24z m-7.61 0.32c-1.29 0-2.58 0.09-3.87 0.11 1.25-0.06 2.54-0.11 3.83-0.15z m106.62-19.79c1.46-0.51 2.91-1 4.36-1.57-1.45 0.53-2.9 1.06-4.36 1.57z m-21.4 6.72c1.42-0.4 2.83-0.82 4.24-1.23-1.41 0.41-2.82 0.81-4.24 1.23z m7.18-2.09c1.43-0.43 2.85-0.89 4.27-1.34-1.42 0.45-2.84 0.91-4.27 1.34z m7.14-2.24c1.44-0.47 2.87-1 4.31-1.45-1.44 0.48-2.87 0.98-4.31 1.45z m78.71-36.81c-1.38 0.86-2.75 1.73-4.13 2.57 1.38-0.85 2.75-1.71 4.13-2.57z m-6.4 3.91c-1.39 0.84-2.77 1.67-4.17 2.48 1.4-0.81 2.78-1.67 4.17-2.48z m-6.41 3.75c-1.42 0.81-2.85 1.63-4.28 2.42 1.43-0.79 2.86-1.61 4.28-2.42z m-6.55 3.64z m-6.69 3.53z m-6.69 3.36c-1.44 0.7-2.87 1.41-4.32 2.09 1.45-0.68 2.88-1.39 4.32-2.09z m-6.78 3.22c-1.44 0.67-2.88 1.34-4.33 2 1.45-0.69 2.89-1.33 4.33-2z m-6.82 3.07c-1.45 0.64-2.91 1.28-4.37 1.89 1.46-0.65 2.92-1.25 4.37-1.89z m-6.93 2.94c-1.45 0.6-2.9 1.2-4.35 1.78 1.45-0.58 2.9-1.18 4.35-1.78z m-7 2.79c-1.45 0.56-2.89 1.13-4.35 1.67 1.48-0.54 2.92-1.11 4.37-1.67z m87.08-48.82c2-1.52 4-3.07 5.94-4.64 0.63 0.54 1.27 1.07 1.91 1.59-0.64-0.52-1.28-1-1.91-1.59-1.95 1.57-3.92 3.12-5.92 4.64z m-12.13 8.88q2.14-1.5 4.26-3-2.09 1.45-4.24 3z m6.11-4.37c1.57-1.15 3.12-2.32 4.67-3.49-1.53 1.17-3.08 2.31-4.65 3.49z m76.87 17.2c0.48 0 1 0.06 1.45 0.09-0.47-0.03-0.95-0.05-1.43-0.09z m-62.37-24.25c0.44 0.35 0.87 0.7 1.32 1-0.43-0.3-0.86-0.65-1.3-1z m2.1 1.63l1.19 0.91z m2.09 1.54l1.14 0.82z m2 1.45l1.14 0.78z m2.08 1.41l1.13 0.74z m2.1 1.35l1.14 0.7z m2.14 1.3c0.37 0.23 0.75 0.45 1.13 0.67-0.34-0.22-0.72-0.48-1.09-0.67z m2.15 1.26l1.14 0.64z m2.18 1.2l1.15 0.61z m2.21 1.16l1.15 0.58z m2.23 1.1l1.16 0.55z m2.26 1.06l1.17 0.52z m2.28 1l1.18 0.5z m2.3 1l1.19 0.47z m2.33 0.9l1.2 0.45z m2.34 0.86l1.22 0.41z m2.37 0.8l1.23 0.39z m2.39 0.75l1.24 0.36z m2.41 0.69l1.24 0.34z m2.42 0.65l1.27 0.31z m2.44 0.59l1.28 0.28z m2.46 0.53l1.29 0.26z m2.48 0.48l1.3 0.23z m2.49 0.43l1.32 0.2z m2.5 0.37l1.35 0.17z m2.52 0.32l1.37 0.14z m2.53 0.26l1.4 0.11z m5.1 0.35l1.55 0.05z m2.56 0.09h1.88z m2.57 0h2.6-2.58z m30.27-3.39c-1.76 0.45-3.55 0.85-5.35 1.21-3.61 0.72-7.28 1.28-11 1.65s-7.5 0.56-11.32 0.56c3.82 0 7.6-0.19 11.32-0.56s7.39-0.93 11-1.65c1.8-0.36 3.59-0.76 5.35-1.21a108.87 108.87 0 0 0 0.04-0.01z m25.11-9.68q-2.35 1.24-4.77 2.39 2.41-1.14 4.77-2.39t4.68-2.59q-2.28 1.33-4.64 2.58zM880 824.21q-2 1.69-4.1 3.32 2.08-1.62 4.1-3.32t3.93-3.51q-1.93 1.8-3.93 3.51z m9.5-9.1q1.78-1.92 3.48-3.93-1.75 2.01-3.53 3.93z" p-id="5206"></path></svg>