<?xml version="1.0" standalone="no"?><!DOCTYPE svg PUBLIC "-//W3C//DTD SVG 1.1//EN" "http://www.w3.org/Graphics/SVG/1.1/DTD/svg11.dtd"><svg t="1598862629281" class="icon" viewBox="0 0 1024 1024" version="1.1" xmlns="http://www.w3.org/2000/svg" p-id="5277" xmlns:xlink="http://www.w3.org/1999/xlink" width="200" height="200"><defs><style type="text/css"></style></defs><path d="M843.77 118.21A71.27 71.27 0 0 0 793.93 98H230.07a71.27 71.27 0 0 0-49.84 20.21A68.26 68.26 0 0 0 159.59 167v690a68.26 68.26 0 0 0 20.64 48.79A71.27 71.27 0 0 0 230.07 926h563.86a71.27 71.27 0 0 0 49.84-20.21A68.3 68.3 0 0 0 864.41 857V167a68.3 68.3 0 0 0-20.64-48.79zM512 908.75c-29.2 0-52.86-23.17-52.86-51.75s23.66-51.75 52.86-51.75 52.86 23.17 52.86 51.75-23.67 51.75-52.86 51.75z m281.93-138a17.09 17.09 0 0 1-5.16 12.2 17.85 17.85 0 0 1-12.46 5H247.69a17.83 17.83 0 0 1-12.46-5 17.09 17.09 0 0 1-5.16-12.2v-586.5a17.11 17.11 0 0 1 5.16-12.2 17.83 17.83 0 0 1 12.46-5.05h528.62a17.85 17.85 0 0 1 12.46 5.05 17.11 17.11 0 0 1 5.16 12.2z" p-id="5278"></path><path d="M308.16 242.31m7.84 0l391.99 0q7.84 0 7.84 7.84l0 454.71q0 7.84-7.84 7.84l-391.99 0q-7.84 0-7.84-7.84l0-454.71q0-7.84 7.84-7.84Z" p-id="5279"></path></svg>