<?xml version="1.0" standalone="no"?><!DOCTYPE svg PUBLIC "-//W3C//DTD SVG 1.1//EN" "http://www.w3.org/Graphics/SVG/1.1/DTD/svg11.dtd"><svg t="1588819214824" class="icon" viewBox="0 0 1024 1024" version="1.1" xmlns="http://www.w3.org/2000/svg" p-id="5850" xmlns:xlink="http://www.w3.org/1999/xlink" width="200" height="200"><defs><style type="text/css"></style></defs><path d="M909.53 427.67L541 109.18a44.69 44.69 0 0 0-17.64-9.39l-0.45-0.11a44.54 44.54 0 0 0-8-1.33c-0.54 0-1.07-0.06-1.6-0.08H510c-0.54 0-1.07 0-1.6 0.08h-0.05a44.54 44.54 0 0 0-8 1.33l-0.45 0.11a44.62 44.62 0 0 0-17.64 9.39L113.72 427.67a44.94 44.94 0 0 0 58.8 68l339.1-293.08 339.11 293.06a44.94 44.94 0 0 0 58.8-68z" p-id="5851"></path><path d="M491.92 314.06L185 572.11v322.36a30.59 30.59 0 0 0 30.62 30.63h195.46V695.42h201V925.1h195.57a30.58 30.58 0 0 0 30.62-30.63V572.11l-306.95-258a30.55 30.55 0 0 0-39.4-0.05z" p-id="5852"></path></svg>